<svg width="195" height="198" viewBox="0 0 195 198" fill="none" xmlns="http://www.w3.org/2000/svg">
<path d="M179.67 193C186.15 191.344 188.628 189.377 190 183.13V162.45C189.084 158.896 187.458 156.939 182.018 153.52L127.551 127.67C140.424 115.756 144.725 105.479 148.68 82.55M148.68 42.13C147.741 25.68 121.728 6.42338 97.0305 5M15.3299 193C8.84954 191.344 6.3721 189.377 5 183.13V162.45C5.91628 158.896 7.54219 156.939 12.9822 153.52L67.4492 127.67C54.5757 115.756 50.2755 105.479 46.3198 82.55C46.3198 82.55 45.3807 58.58 46.3198 42.13C47.2589 25.68 73.272 6.42338 97.9695 5" stroke="black" stroke-width="9"/>
<path d="M149 47.5V77" stroke="#BE9655" stroke-width="7"/>
<path d="M22.5 193.5H172" stroke="#BE9655" stroke-width="7"/>
</svg>
