<svg width="199" height="202" viewBox="0 0 199 202" fill="none" xmlns="http://www.w3.org/2000/svg">
<path d="M77.901 195H181.67C188.15 193.344 190.628 191.377 192 185.13V164.45C191.084 160.896 189.458 158.939 184.018 155.52L129.551 129.67C142.424 117.756 146.725 107.479 150.68 84.55C150.68 84.55 151.619 60.58 150.68 44.13C149.741 27.68 123.728 8.42338 99.0305 7M125.325 195H17.3299C10.8495 193.344 8.3721 191.377 7 185.13V164.45C7.91628 160.896 9.54219 158.939 14.9822 155.52L69.4492 129.67C56.5757 117.756 52.2755 107.479 48.3198 84.55C48.3198 84.55 47.3807 60.58 48.3198 44.13C49.2589 27.68 75.272 8.42338 99.9695 7" stroke="black" stroke-width="13"/>
</svg>
